<?xml version="1.0" encoding="iso-8859-1"?>
<!-- Generator: Adobe Illustrator 17.1.0, SVG Export Plug-In . SVG Version: 6.00 Build 0)  -->
<!DOCTYPE svg PUBLIC "-//W3C//DTD SVG 1.1//EN" "http://www.w3.org/Graphics/SVG/1.1/DTD/svg11.dtd">
<svg xmlns="http://www.w3.org/2000/svg" xmlns:xlink="http://www.w3.org/1999/xlink" version="1.1" id="Capa_1" x="0px" y="0px" viewBox="0 0 294.039 294.039" style="enable-background:new 0 0 294.039 294.039;" xml:space="preserve" width="512px" height="512px">
<g>
	<path d="M213.02,178.632v-63.225c0-2.321-1.389-4.663-3.404-5.83l-58.875-33.98c-1.986-1.148-4.767-1.146-6.743-0.001   L84.76,109.578c-2.012,1.163-3.741,3.506-3.741,5.829v63.225c0,2.323,1.724,4.666,3.738,5.83l59.038,33.979   c0.994,0.575,2.253,0.88,3.464,0.88c1.21,0,2.421-0.304,3.413-0.877l58.926-33.984C211.608,183.295,213.02,180.953,213.02,178.632z   " fill="#8d8d8d"/>
	<path d="M58.02,179.115v-63.398c0-2.38-1.138-4.74-3.232-5.874L15.258,88.387c-0.858-0.465-1.801-0.71-2.746-0.71   c-3.086,0-5.493,2.473-5.493,5.631v108.217c0,3.157,2.474,5.631,5.561,5.631c0.945,0,1.926-0.245,2.782-0.709l39.413-21.459   C56.867,183.855,58.02,181.495,58.02,179.115z" fill="#8d8d8d"/>
	<path d="M162.354,55.498l59.11,34.137c1,0.576,2.167,0.881,3.389,0.881c1.15,0,2.26-0.273,3.219-0.792L267.487,68.4   c1.845-0.997,2.962-2.797,2.989-4.814c0.027-2.018-1.043-3.848-2.854-4.891L167.324,0.788C166.432,0.272,165.465,0,164.469,0   c-3.074,0-5.45,2.467-5.45,5.617v44.051C159.02,51.991,160.34,54.334,162.354,55.498z" fill="#8d8d8d"/>
	<path d="M27.218,68.398l39.421,21.326c0.957,0.518,2.071,0.791,3.222,0.791c1.225,0,2.401-0.306,3.401-0.884l58.763-34.137   c2.009-1.164,2.995-3.506,2.995-5.827V5.617c0-3.15-2.042-5.617-5.117-5.617c-0.997,0-1.814,0.273-2.701,0.787L26.997,58.692   c-1.815,1.046-2.838,2.874-2.812,4.891C24.211,65.6,25.373,67.4,27.218,68.398z" fill="#8d8d8d"/>
	<path d="M281.792,87.677c-0.944,0-1.759,0.245-2.615,0.709l-39.659,21.456c-2.096,1.132-3.499,3.493-3.499,5.875v63.398   c0,2.382,1.472,4.742,3.566,5.873l39.696,21.389c0.858,0.465,1.869,0.642,2.813,0.642c0.001,0-0.012,0-0.012,0   c1.646,0,2.902-0.658,3.943-1.923c0.823-1.003,0.994-2.227,0.994-3.572V93.308C287.02,90.149,284.879,87.677,281.792,87.677z" fill="#8d8d8d"/>
	<path d="M132.019,238.541L73.79,204.817c-1.943-1.123-4.555-1.164-6.536-0.093l-39.375,21.326   c-1.843,0.997-2.936,2.798-2.963,4.814c-0.026,2.017,1.053,3.845,2.864,4.888l99.592,57.486c0.893,0.517,1.897,0.78,2.894,0.78   c0,0,0.001,0,0.002,0c1.662,0,2.846-0.731,3.882-2.023c0.808-1.006,0.87-2.235,0.87-3.574v-44.051   C135.02,242.05,134.034,239.708,132.019,238.541z" fill="#8d8d8d"/>
	<path d="M266.778,226.05l-39.417-21.324c-1.974-1.069-4.681-1.032-6.626,0.091l-58.383,33.726   c-2.012,1.163-3.333,3.506-3.333,5.829v44.051c0,3.149,2.375,5.617,5.45,5.617c0.996,0,1.978-0.272,2.869-0.787l99.578-57.496   c1.816-1.046,2.881-2.875,2.854-4.893C269.743,228.845,268.621,227.045,266.778,226.05z" fill="#8d8d8d"/>
</g>
<g>
</g>
<g>
</g>
<g>
</g>
<g>
</g>
<g>
</g>
<g>
</g>
<g>
</g>
<g>
</g>
<g>
</g>
<g>
</g>
<g>
</g>
<g>
</g>
<g>
</g>
<g>
</g>
<g>
</g>
</svg>
